<?xml version="1.0" standalone="no"?>
<!DOCTYPE svg PUBLIC "-//W3C//DTD SVG 20010904//EN"
 "http://www.w3.org/TR/2001/REC-SVG-20010904/DTD/svg10.dtd">
<svg version="1.0" xmlns="http://www.w3.org/2000/svg"
 width="137.000000pt" height="137.000000pt" viewBox="0 0 137.000000 137.000000"
 preserveAspectRatio="xMidYMid meet">
<metadata>
Created by potrace 1.14, written by Peter Selinger 2001-2017
</metadata>
<g transform="translate(0.000000,137.000000) scale(0.100000,-0.100000)"
fill="#000000" stroke="none">
<path d="M595 1351 c-154 -26 -270 -85 -381 -195 -136 -137 -197 -284 -197
-476 0 -192 61 -338 198 -476 115 -115 243 -177 407 -198 43 -5 49 -3 64 19
23 36 12 65 -51 132 -80 85 -136 202 -160 334 -6 32 -13 39 -51 54 -46 17 -64
39 -64 74 0 22 14 28 25 11 3 -5 20 -10 37 -10 28 0 30 2 24 28 -18 74 -88
171 -178 246 -58 49 -70 74 -44 95 10 9 20 9 39 0 27 -12 97 -4 97 11 0 16
126 71 170 75 31 2 50 11 76 36 33 32 38 32 35 -3 -3 -21 3 -22 30 -8 17 9 19
7 19 -16 0 -25 1 -26 24 -11 22 15 25 15 41 -3 12 -14 16 -28 12 -50 -7 -33
-1 -36 27 -15 28 21 39 19 33 -6 -5 -18 -2 -20 19 -16 27 5 31 -5 9 -23 -25
-21 -19 -41 11 -34 24 6 25 5 15 -14 -17 -31 -14 -35 19 -28 29 5 41 -6 20
-19 -5 -3 -10 -13 -10 -21 0 -12 7 -14 31 -9 29 6 30 6 20 -13 -16 -30 -14
-35 13 -30 20 4 26 0 28 -16 2 -12 10 -22 18 -22 8 -1 19 -2 24 -3 6 0 -3 -15
-20 -32 l-29 -32 30 6 c51 9 63 -7 29 -37 l-29 -26 43 5 c46 7 54 -5 25 -37
-16 -18 -16 -20 10 -42 15 -13 27 -26 27 -28 0 -3 -13 -11 -30 -18 -16 -7 -30
-16 -30 -20 0 -4 18 -19 40 -34 41 -27 45 -46 9 -46 -27 0 -24 -14 11 -43 31
-26 25 -37 -21 -37 -16 0 -18 -3 -9 -19 15 -30 14 -31 -40 -31 l-50 0 16 -38
c30 -70 30 -76 1 -68 -24 6 -27 3 -27 -19 0 -18 -5 -25 -20 -25 -11 0 -20 -6
-20 -13 0 -12 -102 -37 -149 -37 -15 0 -23 -10 -29 -33 -11 -41 -3 -43 79 -22
227 59 423 255 485 485 11 42 17 102 17 170 0 126 -18 203 -76 315 -80 156
-254 295 -425 339 -76 20 -199 28 -267 17z"/>
</g>
</svg>
